<?xml version="1.0" standalone="no"?>
<!DOCTYPE svg PUBLIC "-//W3C//DTD SVG 20010904//EN"
 "http://www.w3.org/TR/2001/REC-SVG-20010904/DTD/svg10.dtd">
<svg version="1.0" xmlns="http://www.w3.org/2000/svg"
 width="1280.000000pt" height="1024.000000pt" viewBox="0 0 1280.000000 1024.000000"
 preserveAspectRatio="xMidYMid meet">

<g transform="translate(0.000000,1024.000000) scale(0.100000,-0.100000)"
fill="#000000" stroke="none">
<path d="M7379 9263 c-13 -16 -12 -17 4 -4 9 7 17 15 17 17 0 8 -8 3 -21 -13z"/>
<path d="M7400 9249 c-7 -11 -27 -38 -46 -59 l-35 -38 69 -56 c38 -31 73 -56
78 -56 9 0 94 103 94 114 0 6 -135 116 -143 116 -4 0 -11 -9 -17 -21z"/>
<path d="M7480 9246 c0 -2 8 -10 18 -17 15 -13 16 -12 3 4 -13 16 -21 21 -21
13z"/>
<path d="M7269 9123 c-13 -16 -12 -17 4 -4 9 7 17 15 17 17 0 8 -8 3 -21 -13z"/>
<path d="M7533 9085 c-24 -30 -43 -59 -43 -63 0 -15 141 -116 148 -106 4 6 20
27 35 47 16 20 26 41 22 46 -3 7 0 8 9 5 10 -4 16 -1 16 7 -1 12 -116 109
-138 116 -4 2 -26 -22 -49 -52z"/>
<path d="M7259 9071 l-46 -58 61 -48 c33 -27 67 -53 74 -59 9 -6 18 -2 30 15
9 13 31 40 49 60 l32 35 -37 30 c-44 35 -111 84 -114 84 -2 0 -24 -27 -49 -59z"/>
<path d="M7693 8957 l-50 -62 74 -59 c70 -55 75 -58 88 -40 7 11 27 36 44 58
17 21 31 42 31 45 0 4 -31 32 -69 63 l-69 56 -49 -61z"/>
<path d="M7441 8967 c-11 -18 -29 -42 -41 -52 -11 -10 -20 -21 -20 -25 0 -4
32 -34 70 -65 67 -55 72 -57 84 -39 8 10 30 39 49 64 l36 44 -23 16 c-12 8
-43 32 -68 53 -25 20 -50 37 -56 37 -6 0 -20 -15 -31 -33z"/>
<path d="M7152 8936 c-23 -30 -42 -59 -42 -64 0 -8 88 -81 127 -105 9 -5 22 3
41 24 31 37 62 81 62 90 0 3 -19 19 -42 36 -24 17 -54 40 -67 52 -13 12 -27
21 -30 21 -4 0 -25 -24 -49 -54z"/>
<path d="M7900 8916 c0 -2 8 -10 18 -17 15 -13 16 -12 3 4 -13 16 -21 21 -21
13z"/>
<path d="M7089 8893 c-13 -16 -12 -17 4 -4 9 7 17 15 17 17 0 8 -8 3 -21 -13z"/>
<path d="M7856 8830 c-25 -32 -46 -60 -46 -62 0 -8 129 -108 138 -108 8 0 52
50 94 106 5 7 -18 31 -66 67 l-74 56 -46 -59z"/>
<path d="M7589 8825 c-24 -31 -44 -60 -44 -65 0 -5 31 -34 69 -64 l68 -55 50
62 c39 49 46 64 36 72 -8 5 -41 31 -75 57 l-61 47 -43 -54z"/>
<path d="M7090 8856 c0 -2 8 -10 18 -17 15 -13 16 -12 3 4 -13 16 -21 21 -21
13z"/>
<path d="M7311 8805 c-40 -55 -49 -75 -33 -75 5 0 17 -8 28 -18 10 -9 37 -32
60 -49 l41 -32 25 27 c35 39 68 83 68 93 0 9 -128 109 -140 109 -4 0 -26 -25
-49 -55z"/>
<path d="M8016 8703 c-25 -32 -46 -61 -46 -64 0 -3 19 -19 43 -36 23 -18 55
-42 71 -54 l29 -23 29 35 c16 18 38 46 49 61 l19 27 -62 47 c-35 26 -68 51
-74 56 -8 6 -27 -11 -58 -49z"/>
<path d="M7746 8693 c-25 -32 -46 -60 -45 -63 0 -6 125 -104 138 -108 11 -4
91 93 91 111 0 13 -38 47 -107 95 l-31 22 -46 -57z"/>
<path d="M7476 8683 c-25 -32 -46 -61 -46 -65 0 -3 33 -31 72 -61 l73 -54 46
60 47 60 -27 22 c-14 11 -47 38 -72 58 l-47 38 -46 -58z"/>
<path d="M8190 8686 c0 -2 8 -10 18 -17 15 -13 16 -12 3 4 -13 16 -21 21 -21
13z"/>
<path d="M7320 8676 c0 -2 8 -10 18 -17 15 -13 16 -12 3 4 -13 16 -21 21 -21
13z"/>
<path d="M7380 8626 c0 -2 8 -10 18 -17 15 -13 16 -12 3 4 -13 16 -21 21 -21
13z"/>
<path d="M8193 8597 c-12 -17 -32 -44 -43 -59 l-21 -27 71 -56 c81 -64 69 -66
138 22 l33 42 -68 55 c-37 31 -72 56 -77 56 -6 0 -21 -15 -33 -33z"/>
<path d="M7914 8574 c-60 -72 -61 -66 16 -128 38 -31 71 -56 73 -56 2 0 25 26
50 59 l46 58 -27 24 c-34 31 -109 89 -115 89 -2 0 -21 -21 -43 -46z"/>
<path d="M7636 8553 c-25 -32 -46 -60 -45 -63 0 -3 33 -30 73 -61 l72 -56 22
31 c12 17 33 45 47 62 l25 31 -63 49 c-34 28 -67 53 -74 57 -7 4 -29 -16 -57
-50z"/>
<path d="M8370 8546 c0 -2 8 -10 18 -17 15 -13 16 -12 3 4 -13 16 -21 21 -21
13z"/>
<path d="M8342 8451 c-23 -31 -42 -60 -42 -66 1 -5 31 -33 68 -62 l67 -52 32
37 c17 20 38 49 47 63 l16 27 -73 54 -72 55 -43 -56z"/>
<path d="M8066 8433 l-46 -58 27 -23 c16 -12 49 -38 74 -57 l47 -33 46 59 c25
32 46 61 46 63 0 2 -26 23 -57 47 -32 24 -59 47 -61 52 -9 19 -34 2 -76 -50z"/>
<path d="M7824 8458 c-11 -13 -32 -39 -46 -59 l-27 -36 70 -57 c38 -31 73 -54
78 -52 13 9 94 116 90 120 -14 12 -139 106 -142 106 -2 0 -12 -10 -23 -22z"/>
<path d="M6218 8382 c-60 -37 -177 -111 -262 -164 -252 -159 -177 -142 -635
-143 l-396 0 -86 -145 c-47 -80 -131 -222 -187 -317 -63 -106 -115 -182 -135
-197 -28 -22 -112 -69 -462 -261 -38 -22 -99 -55 -135 -76 l-65 -37 0 -393 0
-394 -63 -100 c-57 -91 -108 -170 -214 -333 -20 -31 -55 -88 -78 -125 l-41
-68 24 -42 c14 -23 37 -64 53 -92 26 -48 115 -203 222 -387 28 -48 55 -102 60
-120 5 -19 7 -199 4 -413 l-4 -380 118 -69 c177 -103 388 -232 485 -297 113
-76 117 -81 335 -478 43 -80 93 -160 110 -178 l31 -33 354 0 c195 0 364 -3
376 -6 17 -5 34 5 72 41 52 49 61 65 37 65 -23 0 -213 60 -331 105 -102 39
-286 132 -398 203 -391 247 -698 590 -898 1006 -124 259 -207 564 -224 826 -3
47 -8 108 -11 136 -7 75 13 340 37 479 147 869 754 1576 1614 1878 104 37 303
84 440 104 163 24 525 24 675 0 107 -17 118 -20 275 -58 294 -71 615 -231 885
-443 183 -143 421 -403 515 -563 11 -18 22 -33 26 -33 5 0 64 131 94 209 5 14
12 28 15 31 6 5 30 58 30 65 0 2 -36 24 -81 50 -44 25 -118 71 -164 101 -96
63 -125 100 -285 379 -154 267 -185 312 -223 319 -57 12 -177 17 -462 19
l-280 2 -60 34 c-33 18 -116 71 -185 116 -205 135 -263 171 -337 209 -38 20
-71 36 -74 36 -2 0 -52 -31 -111 -68z"/>
<path d="M8546 8383 c-6 -14 -5 -15 5 -6 7 7 10 15 7 18 -3 3 -9 -2 -12 -12z"/>
<path d="M8233 8314 c-24 -30 -43 -58 -43 -63 0 -5 31 -34 69 -65 l70 -56 47
61 47 62 -49 42 c-27 24 -60 50 -74 58 -24 14 -26 12 -67 -39z"/>
<path d="M7964 8303 c-21 -27 -42 -53 -46 -59 -7 -9 74 -82 129 -117 7 -5 28
14 58 53 26 34 46 63 44 64 -30 27 -134 106 -140 106 -4 0 -25 -21 -45 -47z"/>
<path d="M7750 8336 c0 -2 8 -10 18 -17 15 -13 16 -12 3 4 -13 16 -21 21 -21
13z"/>
<path d="M7840 8266 c0 -2 8 -10 18 -17 15 -13 16 -12 3 4 -13 16 -21 21 -21
13z"/>
<path d="M8694 8255 c-146 -32 -252 -127 -300 -269 -13 -37 -14 -50 -5 -59 9
-9 11 -8 6 5 -11 28 47 137 102 194 66 67 157 112 246 121 49 4 67 3 67 -6 0
-7 4 -10 10 -6 5 3 7 12 3 20 -6 18 -46 18 -129 0z"/>
<path d="M8439 8243 c-13 -16 -12 -17 4 -4 9 7 17 15 17 17 0 8 -8 3 -21 -13z"/>
<path d="M8934 8217 c90 -58 111 -75 141 -114 82 -107 103 -248 55 -373 -18
-49 -39 -80 -90 -131 -55 -56 -75 -69 -134 -89 -136 -45 -282 -15 -386 78 -49
43 -120 167 -120 208 0 13 -5 24 -11 24 -16 0 -2 -65 29 -130 92 -196 349
-277 545 -172 51 28 137 114 163 164 96 185 21 438 -155 527 -43 23 -68 28
-37 8z"/>
<path d="M8121 8171 c-23 -27 -41 -55 -41 -62 1 -13 123 -109 138 -109 7 0 92
105 92 113 0 9 -127 107 -138 107 -6 0 -29 -22 -51 -49z"/>
<path d="M8810 8216 c0 -2 7 -6 15 -10 8 -3 15 -1 15 4 0 6 -7 10 -15 10 -8 0
-15 -2 -15 -4z"/>
<path d="M8850 8181 c0 -5 -8 -12 -17 -14 -14 -4 -12 -5 5 -6 13 -1 22 5 22
14 0 8 -2 15 -5 15 -3 0 -5 -4 -5 -9z"/>
<path d="M8435 8170 c-4 -6 -10 -8 -15 -5 -5 3 -12 0 -16 -6 -4 -8 -3 -9 4 -5
7 4 12 3 12 -3 0 -5 -4 -13 -10 -16 -5 -3 -10 -11 -10 -17 0 -7 4 -7 13 1 8 6
16 9 19 6 3 -3 11 1 18 10 8 10 9 15 1 15 -6 0 -11 -5 -11 -12 0 -6 -3 -8 -7
-5 -3 4 2 16 12 27 10 11 13 20 7 20 -6 0 -14 -5 -17 -10z"/>
<path d="M8369 8153 c-13 -16 -12 -17 4 -4 9 7 17 15 17 17 0 8 -8 3 -21 -13z"/>
<path d="M8684 8112 c-50 -21 -92 -55 -128 -104 -23 -31 -29 -51 -33 -115 -5
-67 -2 -86 17 -131 40 -93 135 -156 235 -156 97 -1 169 38 226 120 26 39 31
54 31 112 2 116 -3 140 -33 182 -16 22 -29 44 -29 50 0 10 -69 60 -82 60 -5 0
-8 -6 -8 -14 0 -8 -6 -16 -12 -18 -7 -3 6 -16 29 -31 49 -31 60 -46 43 -57
-10 -6 -8 -18 8 -54 40 -83 25 -162 -42 -225 -20 -19 -36 -44 -36 -55 0 -17
-2 -18 -9 -7 -7 11 -30 15 -79 15 -63 1 -74 4 -109 32 -21 16 -49 51 -62 77
-20 42 -22 53 -14 102 6 30 6 55 1 55 -4 0 -8 5 -8 11 0 6 7 9 15 5 9 -3 19 3
25 14 18 33 96 72 148 74 43 1 61 9 62 29 0 4 -23 7 -50 7 -52 0 -133 -33
-159 -64 -8 -9 -18 -16 -24 -16 -6 0 0 12 14 26 37 41 96 63 169 65 36 1 57 3
48 6 -10 2 -18 9 -18 14 0 15 -92 9 -136 -9z"/>
<path d="M8045 8100 c10 -11 20 -20 23 -20 3 0 -3 9 -13 20 -10 11 -20 20 -23
20 -3 0 3 -9 13 -20z"/>
<path d="M8259 8013 c-13 -16 -12 -17 4 -4 9 7 17 15 17 17 0 8 -8 3 -21 -13z"/>
<path d="M8788 8025 c-2 -1 -22 -5 -46 -8 -23 -2 -51 -12 -61 -21 -9 -9 -22
-16 -28 -16 -12 0 -34 -46 -26 -54 12 -11 20 -6 32 20 7 17 17 24 26 20 9 -3
31 2 49 11 43 20 94 11 130 -22 15 -14 30 -25 35 -25 4 0 4 -28 0 -62 -6 -53
-12 -67 -38 -90 -26 -23 -40 -28 -84 -28 -48 1 -54 4 -79 37 -18 23 -28 49
-28 70 0 30 -3 34 -22 31 -31 -4 -35 -46 -8 -98 65 -128 259 -110 300 27 26
86 -14 166 -97 194 -28 9 -53 16 -55 14z m-119 -230 c20 -35 20 -38 3 -20 -11
11 -23 31 -27 45 -9 31 -5 26 24 -25z"/>
<path d="M8377 7893 c-9 -9 -9 -51 1 -56 4 -3 7 10 8 29 1 37 0 37 -9 27z"/>
<path d="M6080 7864 c-151 -14 -411 -73 -564 -128 -608 -221 -1117 -708 -1350
-1292 -229 -577 -220 -1219 26 -1774 173 -389 456 -727 807 -965 253 -171 497
-262 727 -272 66 -3 147 -2 180 2 53 6 63 12 104 54 188 197 402 443 408 468
2 8 -8 39 -23 69 -81 166 -333 230 -464 118 -49 -42 -76 -100 -105 -223 l-23
-96 -44 3 c-125 8 -304 86 -386 168 -124 123 -146 301 -59 473 14 27 54 92 90
145 37 56 60 99 53 100 -236 64 -405 169 -495 308 -52 80 -68 147 -53 230 27
153 165 276 366 323 39 9 132 19 208 22 75 3 137 9 137 12 0 4 -13 23 -30 42
-50 62 -118 168 -150 235 -44 94 -61 165 -67 285 -6 118 12 338 30 356 7 6 55
16 108 22 210 23 444 -36 630 -161 l65 -44 13 126 c25 247 68 403 149 543 139
243 360 370 762 441 119 21 190 29 190 22 0 -3 -20 -43 -44 -89 -132 -244
-176 -439 -176 -782 0 -222 13 -377 71 -840 22 -176 47 -417 57 -537 l17 -216
85 126 c218 325 364 555 522 822 44 74 95 160 113 190 18 30 65 118 105 195
40 77 76 145 80 150 4 6 35 63 69 128 l60 119 -41 66 c-221 353 -599 684 -977
854 -36 16 -75 33 -86 39 -109 50 -292 103 -485 141 -82 15 -155 20 -335 23
-126 1 -250 1 -275 -1z"/>
<path d="M9314 7728 c-11 -13 -32 -39 -46 -59 l-26 -35 73 -57 73 -56 25 32
c14 18 34 43 46 56 11 13 21 27 20 30 -1 9 -125 111 -136 111 -5 0 -18 -10
-29 -22z"/>
<path d="M9109 7628 c-1 -2 -2 -15 -3 -29 -1 -19 3 -25 16 -24 10 1 24 7 31
15 10 10 9 12 -6 7 -15 -6 -16 -4 -6 16 12 22 12 22 -10 3 -18 -17 -21 -17
-15 -3 5 13 -1 26 -7 15z"/>
<path d="M9479 7608 c-7 -13 -25 -38 -40 -56 -16 -18 -29 -36 -29 -40 0 -4 31
-33 69 -64 l69 -57 47 60 c39 50 45 62 34 75 -13 16 -126 104 -134 104 -2 0
-10 -10 -16 -22z"/>
<path d="M9185 7562 c-25 -31 -45 -60 -45 -63 0 -8 130 -109 141 -109 4 0 18
15 30 33 12 17 33 43 45 57 l23 25 -74 57 -75 57 -45 -57z"/>
<path d="M9139 7543 c-13 -16 -12 -17 4 -4 9 7 17 15 17 17 0 8 -8 3 -21 -13z"/>
<path d="M9618 7451 c-21 -27 -40 -55 -43 -63 -7 -17 132 -125 144 -112 36 42
81 103 81 110 0 8 -132 115 -141 114 -2 -1 -21 -23 -41 -49z"/>
<path d="M9342 7434 c-24 -30 -42 -59 -40 -63 5 -14 130 -112 139 -109 4 2 27
28 53 59 l45 57 -73 56 c-40 31 -75 56 -77 55 -2 0 -23 -25 -47 -55z"/>
<path d="M9070 7419 c-22 -28 -40 -55 -40 -59 0 -11 125 -110 138 -110 15 0
94 109 87 120 -10 16 -123 100 -134 100 -6 0 -29 -23 -51 -51z"/>
<path d="M9755 7450 c10 -11 20 -20 23 -20 3 0 -3 9 -13 20 -10 11 -20 20 -23
20 -3 0 3 -9 13 -20z"/>
<path d="M9772 7314 c-32 -41 -40 -59 -33 -68 25 -30 128 -104 137 -98 16 12
84 100 84 109 0 11 -125 113 -137 113 -4 0 -27 -25 -51 -56z"/>
<path d="M9510 7313 c-19 -25 -38 -52 -43 -59 -5 -9 15 -31 63 -69 l71 -56 19
23 c43 51 72 97 66 107 -8 12 -126 101 -134 101 -4 0 -23 -21 -42 -47z"/>
<path d="M9258 7322 c-33 -36 -68 -83 -68 -92 0 -13 142 -112 149 -104 4 5 25
31 46 58 l39 49 -45 40 c-24 21 -56 48 -70 58 -26 18 -26 18 -51 -9z"/>
<path d="M9890 7346 c0 -2 8 -10 18 -17 15 -13 16 -12 3 4 -13 16 -21 21 -21
13z"/>
<path d="M9035 7320 c10 -11 20 -20 23 -20 3 0 -3 9 -13 20 -10 11 -20 20 -23
20 -3 0 3 -9 13 -20z"/>
<path d="M9980 7276 c0 -2 8 -10 18 -17 15 -13 16 -12 3 4 -13 16 -21 21 -21
13z"/>
<path d="M9664 7178 l-48 -62 28 -20 c16 -12 49 -38 74 -58 l45 -37 48 61 48
60 -57 47 c-31 25 -64 52 -73 59 -14 10 -23 3 -65 -50z"/>
<path d="M9946 7202 c-13 -20 -31 -43 -40 -51 -9 -7 -16 -17 -16 -21 0 -11
127 -110 140 -110 5 0 30 26 55 58 l45 57 -22 15 c-12 8 -42 32 -66 53 -24 20
-50 37 -57 37 -8 0 -25 -17 -39 -38z"/>
<path d="M10030 7236 c0 -2 8 -10 18 -17 15 -13 16 -12 3 4 -13 16 -21 21 -21
13z"/>
<path d="M9392 7164 c-23 -31 -42 -59 -41 -63 1 -14 142 -113 148 -104 3 5 23
30 44 55 20 25 37 49 37 55 0 10 -126 113 -139 113 -4 0 -26 -25 -49 -56z"/>
<path d="M10120 7166 c0 -2 8 -10 18 -17 15 -13 16 -12 3 4 -13 16 -21 21 -21
13z"/>
<path d="M8560 7006 c-24 -61 -63 -151 -86 -200 l-42 -89 46 -91 c133 -268
211 -566 233 -902 21 -307 -15 -604 -107 -888 -44 -136 -54 -160 -131 -318
-200 -409 -520 -759 -913 -995 -429 -258 -913 -376 -1405 -344 -82 6 -163 13
-180 16 -26 4 -39 -3 -104 -63 l-74 -69 39 -27 c22 -15 137 -92 258 -172 l218
-145 29 18 c63 39 193 123 389 253 l205 135 406 -4 406 -4 65 109 c36 60 80
136 98 169 41 75 106 191 166 294 53 93 61 99 334 251 234 130 369 210 378
224 3 6 7 180 8 386 l2 375 26 56 c14 31 60 117 103 190 96 166 192 352 204
391 9 32 -22 99 -184 388 -39 69 -87 161 -109 204 l-38 80 0 335 c0 185 -3
360 -6 389 -7 56 -12 61 -155 140 l-36 20 -43 -112z"/>
<path d="M10094 7058 l-48 -61 24 -16 c13 -9 44 -33 69 -53 25 -21 49 -38 52
-38 7 0 74 77 92 106 5 9 -85 90 -129 117 -7 4 -32 -19 -60 -55z"/>
<path d="M9826 7049 l-48 -59 33 -27 c18 -15 51 -41 73 -57 l40 -29 39 44 c62
72 63 69 -5 124 -34 28 -66 53 -72 57 -7 4 -31 -17 -60 -53z"/>
<path d="M9556 7039 c-26 -34 -44 -65 -39 -69 4 -5 37 -31 72 -58 l64 -49 27
31 c14 17 35 44 47 60 l20 30 -26 21 c-14 11 -47 38 -72 58 l-46 37 -47 -61z"/>
<path d="M10270 7046 c0 -2 8 -10 18 -17 15 -13 16 -12 3 4 -13 16 -21 21 -21
13z"/>
<path d="M9450 6996 c0 -2 8 -10 18 -17 15 -13 16 -12 3 4 -13 16 -21 21 -21
13z"/>
<path d="M10270 6948 c-20 -24 -41 -50 -48 -60 -11 -14 -4 -23 59 -72 81 -64
78 -64 138 18 l31 45 -69 55 c-39 31 -71 56 -73 56 -2 0 -19 -19 -38 -42z"/>
<path d="M10341 6987 c2 -1 13 -9 24 -17 19 -14 19 -14 6 3 -7 9 -18 17 -24
17 -6 0 -8 -1 -6 -3z"/>
<path d="M9986 6921 l-46 -60 71 -55 c39 -31 75 -53 80 -50 21 13 91 117 82
123 -5 3 -37 27 -70 54 -34 26 -63 47 -66 47 -2 0 -25 -27 -51 -59z"/>
<path d="M9716 6909 c-42 -52 -47 -61 -33 -72 8 -7 41 -32 73 -57 l57 -45 39
45 c64 74 65 71 -5 127 -34 27 -67 52 -72 55 -6 4 -33 -20 -59 -53z"/>
<path d="M9600 6876 c0 -2 8 -10 18 -17 15 -13 16 -12 3 4 -13 16 -21 21 -21
13z"/>
<path d="M10168 6818 c-12 -18 -31 -41 -40 -50 -27 -27 -22 -42 25 -75 23 -17
53 -40 66 -52 13 -11 27 -19 31 -16 13 8 93 115 89 119 -21 21 -133 106 -140
106 -4 0 -18 -15 -31 -32z"/>
<path d="M9877 6782 l-46 -59 45 -37 c24 -21 42 -41 39 -46 -3 -5 0 -12 6 -16
8 -4 9 -3 5 4 -10 16 0 15 29 -4 23 -15 25 -14 69 43 25 32 46 60 45 63 0 6
-126 104 -138 108 -5 2 -29 -23 -54 -56z"/>
<path d="M10045 6663 c-21 -26 -42 -53 -47 -59 -5 -7 18 -31 66 -67 l75 -57
45 58 c25 31 46 60 46 63 0 7 -116 98 -134 105 -7 3 -30 -17 -51 -43z"/>
<path d="M9830 6696 c0 -2 8 -10 18 -17 15 -13 16 -12 3 4 -13 16 -21 21 -21
13z"/>
<path d="M10236 6573 c-6 -14 -5 -15 5 -6 7 7 10 15 7 18 -3 3 -9 -2 -12 -12z"/>
<path d="M9980 6576 c0 -2 8 -10 18 -17 15 -13 16 -12 3 4 -13 16 -21 21 -21
13z"/>
<path d="M8357 6536 c-9 -13 -56 -102 -105 -198 -49 -95 -113 -215 -141 -267
-28 -52 -51 -96 -51 -98 0 -6 -33 -61 -189 -318 -202 -330 -368 -583 -551
-835 -42 -58 -79 -109 -82 -115 -3 -5 -11 -59 -18 -120 -32 -298 -133 -559
-308 -789 -100 -130 -285 -293 -497 -437 l-80 -54 42 -3 c66 -5 305 25 428 53
112 25 275 75 332 101 17 8 34 14 38 14 14 0 253 120 319 160 298 182 546 420
724 695 200 309 315 620 358 970 27 217 19 521 -17 690 -46 214 -80 327 -141
475 -21 52 -40 96 -42 97 -2 2 -10 -7 -19 -21z"/>
<path d="M10051 6517 c2 -1 13 -9 24 -17 19 -14 19 -14 6 3 -7 9 -18 17 -24
17 -6 0 -8 -1 -6 -3z"/>
<path d="M10130 6456 c7 -7 13 -7 20 0 6 6 3 10 -10 10 -13 0 -16 -4 -10 -10z"/>
<path d="M4220 1579 c-29 -12 -40 -27 -40 -55 0 -31 21 -44 97 -63 68 -16 68
-16 68 -51 0 -34 -1 -35 -44 -38 -62 -5 -89 4 -93 30 -4 27 -28 36 -28 11 0
-41 24 -57 93 -61 56 -4 68 -1 86 17 48 48 15 95 -79 113 -63 13 -65 14 -65
43 0 30 0 30 63 33 59 3 63 2 72 -23 11 -29 30 -34 30 -7 0 36 -24 53 -80 57
-30 3 -66 0 -80 -6z"/>
<path d="M5047 1579 c-4 -8 -6 -60 -5 -114 2 -79 6 -100 20 -109 23 -14 36 1
15 17 -13 9 -17 33 -19 117 -2 60 -6 98 -11 89z"/>
<path d="M5247 1583 c-13 -12 -7 -23 13 -23 11 0 20 7 20 15 0 15 -21 21 -33
8z"/>
<path d="M7430 1575 c0 -10 7 -15 18 -13 21 4 19 22 -2 26 -10 2 -16 -3 -16
-13z"/>
<path d="M8100 1575 c0 -10 7 -15 18 -13 21 4 19 22 -2 26 -10 2 -16 -3 -16
-13z"/>
<path d="M5152 1474 c2 -88 6 -109 20 -118 9 -5 21 -7 25 -2 4 4 0 12 -10 17
-14 8 -17 25 -17 109 0 62 -4 100 -10 100 -7 0 -10 -38 -8 -106z"/>
<path d="M4654 1548 c-10 -32 -5 -137 7 -160 12 -23 56 -41 78 -32 12 4 6 9
-19 17 -34 12 -35 14 -38 70 l-3 57 31 0 c16 0 30 5 30 10 0 6 -13 10 -30 10
-25 0 -30 4 -30 25 0 31 -16 33 -26 3z"/>
<path d="M5336 1554 c-9 -25 -7 -130 4 -159 11 -28 54 -50 79 -39 12 5 7 10
-19 18 -34 12 -35 15 -38 69 l-3 57 31 0 c16 0 30 5 30 10 0 6 -13 10 -30 10
-25 0 -30 4 -30 25 0 28 -15 34 -24 9z"/>
<path d="M7969 1543 c-3 -61 4 -149 12 -164 10 -20 58 -34 71 -21 6 6 -1 12
-21 17 -34 7 -45 30 -39 86 2 29 7 34 31 37 15 2 27 7 27 12 0 5 -12 10 -27
12 -20 2 -29 9 -31 26 -5 31 -22 28 -23 -5z"/>
<path d="M5257 1523 c-11 -11 -8 -173 3 -173 6 0 10 37 10 90 0 90 -1 96 -13
83z"/>
<path d="M7436 1523 c-3 -3 -6 -44 -6 -90 0 -67 3 -83 15 -83 12 0 15 16 15
84 0 78 -7 105 -24 89z"/>
<path d="M8110 1440 c0 -53 4 -90 10 -90 6 0 10 37 10 90 0 53 -4 90 -10 90
-6 0 -10 -37 -10 -90z"/>
<path d="M4442 1508 c-14 -14 -16 -38 -3 -38 5 0 11 5 13 12 3 7 26 12 58 12
44 1 55 -2 58 -16 3 -15 -4 -18 -51 -18 -61 0 -87 -19 -87 -64 0 -38 36 -53
95 -39 30 7 45 7 48 0 2 -6 9 -7 15 -3 15 9 16 104 2 140 -9 24 -14 26 -73 26
-36 0 -68 -5 -75 -12z m128 -87 c0 -23 -16 -37 -52 -46 -35 -9 -68 2 -68 24 0
29 22 41 72 41 40 0 48 -3 48 -19z"/>
<path d="M4806 1504 c-21 -20 -22 -117 -2 -133 17 -15 106 -26 139 -17 14 3
27 15 30 26 7 28 -10 35 -23 10 -8 -15 -21 -20 -50 -20 -60 0 -90 15 -90 45 0
25 1 25 85 25 78 0 85 2 85 20 0 11 -9 29 -20 40 -26 26 -130 29 -154 4z m129
-14 c43 -16 18 -30 -56 -30 -53 0 -69 3 -69 14 0 24 78 34 125 16z"/>
<path d="M5489 1502 c-18 -16 -22 -28 -21 -68 3 -61 17 -76 81 -82 61 -6 97 3
105 25 10 26 -10 39 -23 14 -9 -16 -21 -21 -51 -21 -60 0 -90 15 -90 45 0 25
1 25 85 25 83 0 85 0 85 24 0 36 -35 56 -96 56 -35 0 -59 -6 -75 -18z m132
-13 c34 -18 10 -29 -62 -29 -53 0 -69 3 -69 14 0 8 6 17 13 19 22 10 98 7 118
-4z"/>
<path d="M5825 1500 c-10 -11 -20 -37 -22 -58 -6 -58 18 -82 88 -89 63 -6 99
7 99 37 0 26 -12 25 -28 0 -14 -22 -63 -27 -106 -10 -23 8 -26 15 -26 54 0 54
16 66 84 66 36 0 46 -4 51 -20 8 -25 25 -26 25 -2 0 31 -22 42 -85 42 -49 0
-66 -4 -80 -20z"/>
<path d="M6057 1502 c-21 -23 -23 -114 -3 -131 24 -20 99 -24 139 -8 36 16 37
17 37 71 0 45 -4 58 -22 70 -33 23 -130 21 -151 -2z m127 -12 c22 -8 26 -16
26 -47 0 -55 -11 -66 -67 -67 -73 -1 -83 6 -83 59 0 38 4 47 23 55 30 12 70
12 101 0z"/>
<path d="M6285 1510 c-1 -3 -2 -38 -1 -79 1 -50 5 -76 14 -78 9 -4 12 12 12
55 0 63 15 92 48 92 36 0 46 -18 50 -84 5 -82 22 -87 22 -6 0 53 3 61 25 76
21 14 31 15 50 6 23 -11 25 -17 25 -77 0 -37 4 -65 10 -65 6 0 10 29 10 68 0
54 -4 72 -18 85 -21 20 -73 22 -90 5 -9 -9 -17 -9 -34 0 -22 12 -116 13 -123
2z"/>
<path d="M6610 1433 c0 -49 4 -83 10 -83 6 0 10 22 10 49 0 63 7 80 37 92 46
17 63 -3 63 -76 0 -37 4 -65 10 -65 6 0 10 21 10 48 0 78 30 112 83 96 14 -4
17 -17 17 -75 0 -39 4 -69 10 -69 6 0 10 32 10 75 0 63 -3 76 -19 85 -26 13
-74 13 -88 -1 -8 -8 -17 -8 -31 0 -12 6 -44 10 -71 9 l-51 -2 0 -83z"/>
<path d="M6930 1451 c0 -44 5 -72 13 -79 21 -18 93 -25 126 -14 19 7 31 7 31
1 0 -5 5 -9 10 -9 6 0 10 35 10 85 0 50 -4 85 -10 85 -5 0 -10 -24 -10 -53 0
-75 -15 -92 -80 -91 -62 1 -70 10 -70 87 0 31 -4 57 -10 57 -6 0 -10 -30 -10
-69z"/>
<path d="M7180 1438 c0 -42 5 -80 10 -83 6 -4 10 8 10 28 0 69 10 95 43 106
36 13 77 14 95 2 16 -10 20 -29 21 -95 1 -37 4 -47 12 -39 7 7 10 35 7 74 -6
82 -18 90 -120 87 l-78 -3 0 -77z"/>
<path d="M7530 1500 c-23 -23 -28 -95 -7 -123 14 -20 100 -33 141 -23 19 5 26
13 26 31 0 31 -16 33 -23 4 -5 -20 -11 -21 -63 -16 -64 7 -74 16 -74 69 0 44
14 54 80 57 36 2 48 -2 62 -21 l19 -23 -3 30 c-3 30 -4 30 -70 33 -57 2 -70 0
-88 -18z"/>
<path d="M7756 1504 c-14 -14 -22 -34 -13 -34 2 0 18 7 35 16 39 19 107 15
107 -6 0 -11 -15 -16 -58 -20 -43 -4 -63 -11 -73 -25 -37 -50 15 -97 86 -79
22 6 43 7 46 3 3 -5 9 -9 15 -9 10 0 13 129 3 154 -9 23 -126 23 -148 0z m128
-73 c12 -19 -7 -41 -42 -51 -51 -14 -60 -13 -72 9 -15 30 12 51 65 51 24 0 46
-4 49 -9z"/>
<path d="M8205 1506 c-25 -18 -29 -99 -6 -127 34 -43 162 -32 175 14 12 44 6
87 -14 107 -24 24 -125 28 -155 6z m133 -14 c7 -5 15 -25 18 -44 8 -47 -21
-78 -72 -78 -59 0 -74 14 -74 70 0 38 4 50 18 53 30 8 96 7 110 -1z"/>
<path d="M8430 1433 c0 -49 4 -83 10 -83 6 0 10 20 10 45 0 85 33 115 114 100
l35 -7 3 -67 c4 -85 23 -79 23 7 0 84 -13 94 -117 90 l-78 -3 0 -82z"/>
</g>
</svg>
